<?xml version="1.0" encoding="UTF-8"?>
<svg width="729px" height="333px" viewBox="0 0 729 333" version="1.1" xmlns="http://www.w3.org/2000/svg" xmlns:xlink="http://www.w3.org/1999/xlink">
    <!-- Generator: Sketch 58 (84663) - https://sketch.com -->
    <title>PB_tenor_logo_white_vertical</title>
    <desc>Created with Sketch.</desc>
    <defs>
        <polygon id="path-1" points="9.33196144e-05 0.136430828 92.9189747 0.136430828 92.9189747 175.842699 9.33196144e-05 175.842699"></polygon>
        <polygon id="path-3" points="0.00015818067 0.38312324 82.7284902 0.38312324 82.7284902 137.280001 0.00015818067 137.280001"></polygon>
    </defs>
    <g id="Page-1" stroke="none" stroke-width="1" fill="none" fill-rule="evenodd">
        <g id="PB_tenor_logo_white_vertical" transform="translate(0.812500, 0.250000)">
            <g id="Group-13-Copy-21" transform="translate(45.187500, 155.750000)">
                <path d="M201.399227,97.2809141 C200.80605,92.1400423 199.342878,87.3946222 197.405165,82.7678377 C185.857976,55.6003076 155.843194,54.8884946 140.420579,68.1361257 C132.31382,75.0960752 127.528854,83.9937378 125.156144,94.2754814 C124.918873,95.2245654 124.839783,96.1736494 124.642057,97.2809141 L201.399227,97.2809141 Z M124.20706,117.409404 C125.156144,124.527534 127.212493,130.894306 130.850649,136.628356 C139.392405,150.113258 151.809587,156.519575 167.706745,156.400939 C180.75665,156.321849 191.947932,151.576429 201.596953,142.876492 C206.658734,138.289253 213.776865,139.159246 217.33593,144.656025 C219.906366,148.610541 219.392278,153.395507 215.833213,156.954572 C205.037383,167.750402 192.185203,174.473081 176.960314,176.331704 C166.994932,177.557604 157.069095,177.320333 147.380528,174.3149 C125.314325,167.473586 110.643068,152.841874 104.118115,130.854761 C96.485898,105.031767 100.55905,81.0278503 118.552101,60.3852729 C130.771558,46.4258288 146.589625,39.7822407 165.215399,40.098602 C181.270737,40.3754182 195.269726,45.8326513 206.540099,57.4984757 C215.912304,67.1870417 221.092721,79.0110467 223.465431,92.1400423 C224.374969,97.1227334 224.770421,102.184515 225.007692,107.246296 C225.284508,112.822165 220.93454,117.172133 215.358671,117.448949 C214.567768,117.488495 213.776865,117.448949 212.985961,117.448949 L127.014767,117.448949 C126.223864,117.409404 125.393415,117.409404 124.20706,117.409404 L124.20706,117.409404 Z" id="Fill-1" fill="#FFFFFF"></path>
                <path d="M496.801628,109.382763 C496.603902,95.8187711 492.689326,84.5088532 484.107629,74.9389227 C466.589515,55.3640648 434.597079,56.115423 417.790383,76.2834584 C403.791394,93.0901545 402.802765,122.74903 419.055829,141.018897 C433.52936,157.311506 459.55008,160.672846 477.26671,148.018392 C490.751217,138.369371 496.406176,124.726288 496.801628,109.382763 M383.465025,107.56329 C383.504723,72.6057578 410.593163,39.7437237 452.036498,39.8226716 C490.672127,39.8623592 520.291457,69.7980509 520.212525,108.710496 C520.133276,146.950673 489.921164,176.767333 451.20605,176.807274 C413.914957,176.807274 383.386088,145.645682 383.465025,107.56329" id="Fill-3" fill="#FFFFFF"></path>
                <path d="M270.172663,59.0416467 C272.664008,56.6689367 274.680812,54.6521332 276.776706,52.7539651 C286.900269,43.500396 299.00109,39.7040599 312.485992,39.8226954 C323.123246,39.9413309 333.128569,42.3140409 341.986687,48.483087 C352.979848,56.1548495 358.951564,67.0297706 361.284333,79.9610403 C362.036087,84.152828 362.431538,88.4632513 362.470688,92.7341294 C362.589719,116.935772 362.510629,141.097869 362.510629,165.299512 C362.510629,169.926296 359.584286,174.31581 355.273863,175.897616 C350.765714,177.558513 346.534381,176.886246 343.054406,173.406271 C340.602606,170.994016 339.534491,167.949038 339.534491,164.469063 C339.574432,142.046953 339.653522,119.664388 339.455796,97.2422785 C339.416251,92.8132197 338.783528,88.2655255 337.715809,83.9946474 C334.354469,70.905197 324.982265,62.9566183 311.576453,61.4143568 C302.046068,60.3070921 292.990224,61.8098085 285.041646,67.5834029 C274.483086,75.2551654 270.251753,86.1696316 270.212208,98.8240852 C270.133118,120.890289 270.212208,142.996037 270.172663,165.062241 C270.172663,173.524906 261.947268,179.021685 254.117325,175.818526 C249.965082,174.118084 247.157375,169.609935 247.157375,164.548153 L247.157375,129.55068 L247.157375,51.4489746 C247.157375,46.9803707 249.213724,43.5794863 253.01006,41.3649569 C256.925032,39.0713372 260.998184,39.1899727 264.834065,41.6022279 C268.116314,43.6981218 270.093572,46.7430997 270.172663,50.7767068 C270.212208,53.3866878 270.172663,55.9175785 270.172663,59.0416467" id="Fill-5" fill="#FFFFFF"></path>
                <g id="Group-9" transform="translate(0.000000, 0.259021)">
                    <mask id="mask-2" fill="white">
                        <use xlink:href="#path-1"></use>
                    </mask>
                    <g id="Clip-8"></g>
                    <path d="M49.1109457,42.0541105 L51.6813816,42.0541105 L80.1539021,42.0541105 C84.4247802,42.2526273 87.9047549,43.6367081 90.1192843,47.4725894 C93.7969848,53.9184517 90.0401939,61.7088497 82.6847928,62.8161143 C81.5379829,62.974295 80.3120828,63.0138402 79.1257277,63.0130493 L51.6418364,63.0130493 L49.0362053,63.0130493 L49.0362053,65.228765 L49.0362053,135.816889 C49.1109457,140.562309 49.8623039,145.110003 53.0654624,148.985034 C55.6754435,152.148648 59.1949634,153.493579 63.0308446,154.086756 C68.7648939,154.996295 74.459398,154.521358 80.0352666,152.78137 C85.334319,151.080928 90.5542811,153.453638 92.3338136,158.396784 C94.1528913,163.41902 91.5824555,168.362166 86.6788547,170.734876 C80.0352666,173.977975 73.0753171,175.401206 65.719916,175.796658 C46.6591453,176.746137 29.5360878,162.905328 26.6492906,144.002738 C26.2538389,141.550938 26.1352034,139.019652 26.1352034,136.528306 C26.0956582,112.998932 26.0956582,89.4695572 26.1000082,65.9401826 L26.1000082,63.211566 C25.2256646,63.1720208 24.5138515,63.0929305 23.8415837,63.0929305 C19.4916153,63.0929305 15.1416469,63.1720208 10.7916785,63.0533853 C3.67354833,62.856055 -0.913691093,57.5174574 0.154028427,50.7943834 C0.905386608,46.0489634 5.21580985,42.4898983 10.6334978,42.3317176 C14.9043759,42.2130821 19.2147991,42.2925679 23.4856772,42.2925679 C26.0956582,42.2925679 26.0956582,42.2925679 26.1000082,39.5635559 L26.1000082,12.0796646 C26.0956582,5.3569861 30.9597138,0.21611434 37.4451213,0.136130456 C43.9305287,0.0579336702 49.0318553,5.2383506 49.0714005,12.0405148 C49.1109457,21.2541434 49.0714005,30.5077126 49.0714005,39.722132 C49.1109457,40.4730948 49.1109457,41.2639981 49.1109457,42.2526273 L49.1109457,42.0541105 Z" id="Fill-7" fill="#FFFFFF" mask="url(#mask-2)"></path>
                </g>
                <g id="Group-12" transform="translate(542.955148, 39.408737)">
                    <mask id="mask-4" fill="white">
                        <use xlink:href="#path-3"></use>
                    </mask>
                    <g id="Clip-11"></g>
                    <path d="M23.0945359,28.1351212 C26.4954203,24.2596948 29.5004576,20.4238135 32.9808278,17.0229291 C40.9294064,9.27207631 50.2616705,3.85438838 61.2556225,1.67940417 C64.5770211,1.00713632 68.0569958,0.848955654 71.4582757,1.00713632 C77.904138,1.36304283 82.7286484,6.7411856 82.7286484,13.0684124 C82.7286484,19.3165488 77.8246522,24.6156013 71.4582757,25.2087788 C66.7520053,25.6437756 61.9674355,25.722866 57.3406509,26.7114951 C44.6466522,29.4401117 35.6698992,37.1118742 29.8959093,48.6195179 C24.8341279,58.6639904 23.1340811,69.4993663 23.0945359,80.6115583 C23.0154456,95.4409961 23.0945359,110.270434 23.0945359,125.099872 C23.0945359,131.980731 18.0323591,137.319328 11.5074064,137.280001 C4.94330411,137.240238 0.00015818067,132.138911 0.00015818067,125.258052 L0.00015818067,11.802967 C0.00015818067,6.66209526 3.63831358,1.99576551 8.54151889,0.769865319 C13.9200571,-0.574670373 19.1400192,1.639859 21.4727886,6.58300493 C22.3823275,8.48117296 22.8968101,10.6957023 22.975505,12.8311414 C23.2131714,17.220655 23.0545953,21.6497137 23.0545953,26.0787725 C23.0945359,26.7510403 23.0945359,27.383763 23.0945359,28.1351212" id="Fill-10" fill="#FFFFFF" mask="url(#mask-4)"></path>
                </g>
            </g>
            <path d="M35.125,25.875 C41.5416988,25.875 47.2916412,27.2916525 52.375,30.125 C57.4583588,32.9583475 61.4374856,36.9166412 64.3125,42 C67.1875144,47.0833588 68.625,52.9583 68.625,59.625 C68.625,66.2917 67.1875144,72.1874744 64.3125,77.3125 C61.4374856,82.4375256 57.4583588,86.4166525 52.375,89.25 C47.2916412,92.0833475 41.5416988,93.5 35.125,93.5 C30.3749763,93.5 26.0208531,92.5833425 22.0625,90.75 C18.1041469,88.9166575 14.7500137,86.2500175 12,82.75 L12,117 L0,117 L0,26.5 L11.5,26.5 L11.5,37 C14.16668,33.333315 17.5416462,30.5625094 21.625,28.6875 C25.7083538,26.8124906 30.2083088,25.875 35.125,25.875 Z M34.125,83 C38.3750213,83 42.1874831,82.0208431 45.5625,80.0625 C48.9375169,78.1041569 51.6041569,75.3541844 53.5625,71.8125 C55.5208431,68.2708156 56.5,64.2083563 56.5,59.625 C56.5,55.0416437 55.5208431,50.9791844 53.5625,47.4375 C51.6041569,43.8958156 48.9375169,41.1666762 45.5625,39.25 C42.1874831,37.3333238 38.3750213,36.375 34.125,36.375 C29.9583125,36.375 26.1875169,37.3541569 22.8125,39.3125 C19.4374831,41.2708431 16.7708431,43.9999825 14.8125,47.5 C12.8541569,51.0000175 11.875,55.0416437 11.875,59.625 C11.875,64.2083563 12.8333237,68.2708156 14.75,71.8125 C16.6666763,75.3541844 19.3333163,78.1041569 22.75,80.0625 C26.1666837,82.0208431 29.9583125,83 34.125,83 Z M112.625,93.5 C106.041634,93.5 100.125026,92.0416812 94.875,89.125 C89.6249737,86.2083188 85.5208481,82.1875256 82.5625,77.0625 C79.6041519,71.9374744 78.125,66.1250325 78.125,59.625 C78.125,53.1249675 79.6041519,47.3125256 82.5625,42.1875 C85.5208481,37.0624744 89.6249737,33.0625144 94.875,30.1875 C100.125026,27.3124856 106.041634,25.875 112.625,25.875 C119.208366,25.875 125.104141,27.3124856 130.3125,30.1875 C135.520859,33.0625144 139.604152,37.0624744 142.5625,42.1875 C145.520848,47.3125256 147,53.1249675 147,59.625 C147,66.1250325 145.520848,71.9374744 142.5625,77.0625 C139.604152,82.1875256 135.520859,86.2083188 130.3125,89.125 C125.104141,92.0416812 119.208366,93.5 112.625,93.5 Z M112.625,83 C116.875021,83 120.687483,82.0208431 124.0625,80.0625 C127.437517,78.1041569 130.083324,75.3541844 132,71.8125 C133.916676,68.2708156 134.875,64.2083563 134.875,59.625 C134.875,55.0416437 133.916676,50.9791844 132,47.4375 C130.083324,43.8958156 127.437517,41.1666762 124.0625,39.25 C120.687483,37.3333238 116.875021,36.375 112.625,36.375 C108.374979,36.375 104.562517,37.3333238 101.1875,39.25 C97.8124831,41.1666762 95.1458431,43.8958156 93.1875,47.4375 C91.2291569,50.9791844 90.25,55.0416437 90.25,59.625 C90.25,64.2083563 91.2291569,68.2708156 93.1875,71.8125 C95.1458431,75.3541844 97.8124831,78.1041569 101.1875,80.0625 C104.562517,82.0208431 108.374979,83 112.625,83 Z M261,26.5 L236.25,92.75 L224.75,92.75 L205.625,42.5 L186.25,92.75 L174.75,92.75 L150.125,26.5 L161.5,26.5 L180.75,79.25 L200.75,26.5 L210.875,26.5 L230.5,79.5 L250.25,26.5 L261,26.5 Z M330.125,60 C330.125,60.9166713 330.041668,62.1249925 329.875,63.625 L276.125,63.625 C276.875004,69.4583625 279.437478,74.1458156 283.8125,77.6875 C288.187522,81.2291844 293.624967,83 300.125,83 C308.041706,83 314.416642,80.33336 319.25,75 L325.875,82.75 C322.874985,86.2500175 319.145856,88.9166575 314.6875,90.75 C310.229144,92.5833425 305.250027,93.5 299.75,93.5 C292.749965,93.5 286.541694,92.0625144 281.125,89.1875 C275.708306,86.3124856 271.520848,82.2916925 268.5625,77.125 C265.604152,71.9583075 264.125,66.1250325 264.125,59.625 C264.125,53.2083013 265.562486,47.4166925 268.4375,42.25 C271.312514,37.0833075 275.270808,33.0625144 280.3125,30.1875 C285.354192,27.3124856 291.041635,25.875 297.375,25.875 C303.708365,25.875 309.354142,27.3124856 314.3125,30.1875 C319.270858,33.0625144 323.145819,37.0833075 325.9375,42.25 C328.729181,47.4166925 330.125,53.3333 330.125,60 Z M297.375,36 C291.624971,36 286.812519,37.7499825 282.9375,41.25 C279.062481,44.7500175 276.79167,49.333305 276.125,55 L318.625,55 C317.95833,49.4166387 315.687519,44.8541844 311.8125,41.3125 C307.937481,37.7708156 303.125029,36 297.375,36 Z M357.25,37.625 C359.333344,33.7916475 362.416646,30.87501 366.5,28.875 C370.583354,26.87499 375.541637,25.875 381.375,25.875 L381.375,37.5 C380.70833,37.4166663 379.791673,37.375 378.625,37.375 C372.124968,37.375 367.020852,39.3124806 363.3125,43.1875 C359.604148,47.0625194 357.75,52.5832975 357.75,59.75 L357.75,92.75 L345.75,92.75 L345.75,26.5 L357.25,26.5 L357.25,37.625 Z M454.375,60 C454.375,60.9166713 454.291668,62.1249925 454.125,63.625 L400.375,63.625 C401.125004,69.4583625 403.687478,74.1458156 408.0625,77.6875 C412.437522,81.2291844 417.874968,83 424.375,83 C432.291706,83 438.666642,80.33336 443.5,75 L450.125,82.75 C447.124985,86.2500175 443.395856,88.9166575 438.9375,90.75 C434.479144,92.5833425 429.500027,93.5 424,93.5 C416.999965,93.5 410.791694,92.0625144 405.375,89.1875 C399.958306,86.3124856 395.770848,82.2916925 392.8125,77.125 C389.854152,71.9583075 388.375,66.1250325 388.375,59.625 C388.375,53.2083013 389.812486,47.4166925 392.6875,42.25 C395.562514,37.0833075 399.520808,33.0625144 404.5625,30.1875 C409.604192,27.3124856 415.291635,25.875 421.625,25.875 C427.958365,25.875 433.604142,27.3124856 438.5625,30.1875 C443.520858,33.0625144 447.395819,37.0833075 450.1875,42.25 C452.979181,47.4166925 454.375,53.3333 454.375,60 Z M421.625,36 C415.874971,36 411.062519,37.7499825 407.1875,41.25 C403.312481,44.7500175 401.04167,49.333305 400.375,55 L442.875,55 C442.20833,49.4166387 439.937519,44.8541844 436.0625,41.3125 C432.187481,37.7708156 427.375029,36 421.625,36 Z M532.5,0 L532.5,92.75 L521,92.75 L521,82.25 C518.33332,85.916685 514.958354,88.7083238 510.875,90.625 C506.791646,92.5416762 502.291691,93.5 497.375,93.5 C490.958301,93.5 485.208359,92.0833475 480.125,89.25 C475.041641,86.4166525 471.062514,82.4375256 468.1875,77.3125 C465.312486,72.1874744 463.875,66.2917 463.875,59.625 C463.875,52.9583 465.312486,47.0833588 468.1875,42 C471.062514,36.9166412 475.041641,32.9583475 480.125,30.125 C485.208359,27.2916525 490.958301,25.875 497.375,25.875 C502.125024,25.875 506.49998,26.7708244 510.5,28.5625 C514.50002,30.3541756 517.83332,32.9999825 520.5,36.5 L520.5,0 L532.5,0 Z M498.375,83 C502.541688,83 506.333316,82.0208431 509.75,80.0625 C513.166684,78.1041569 515.833324,75.3541844 517.75,71.8125 C519.666676,68.2708156 520.625,64.2083563 520.625,59.625 C520.625,55.0416437 519.666676,50.9791844 517.75,47.4375 C515.833324,43.8958156 513.166684,41.1666762 509.75,39.25 C506.333316,37.3333238 502.541688,36.375 498.375,36.375 C494.124979,36.375 490.312517,37.3333238 486.9375,39.25 C483.562483,41.1666762 480.895843,43.8958156 478.9375,47.4375 C476.979157,50.9791844 476,55.0416437 476,59.625 C476,64.2083563 476.979157,68.2708156 478.9375,71.8125 C480.895843,75.3541844 483.562483,78.1041569 486.9375,80.0625 C490.312517,82.0208431 494.124979,83 498.375,83 Z M622,25.875 C628.416699,25.875 634.166641,27.2916525 639.25,30.125 C644.333359,32.9583475 648.312486,36.9166412 651.1875,42 C654.062514,47.0833588 655.5,52.9583 655.5,59.625 C655.5,66.2917 654.062514,72.1874744 651.1875,77.3125 C648.312486,82.4375256 644.333359,86.4166525 639.25,89.25 C634.166641,92.0833475 628.416699,93.5 622,93.5 C617.083309,93.5 612.583354,92.5416762 608.5,90.625 C604.416646,88.7083238 601.04168,85.916685 598.375,82.25 L598.375,92.75 L586.875,92.75 L586.875,0 L598.875,0 L598.875,36.5 C601.54168,32.9999825 604.87498,30.3541756 608.875,28.5625 C612.87502,26.7708244 617.249976,25.875 622,25.875 Z M621,83 C625.250021,83 629.062483,82.0208431 632.4375,80.0625 C635.812517,78.1041569 638.479157,75.3541844 640.4375,71.8125 C642.395843,68.2708156 643.375,64.2083563 643.375,59.625 C643.375,55.0416437 642.395843,50.9791844 640.4375,47.4375 C638.479157,43.8958156 635.812517,41.1666762 632.4375,39.25 C629.062483,37.3333238 625.250021,36.375 621,36.375 C616.833312,36.375 613.041684,37.3333238 609.625,39.25 C606.208316,41.1666762 603.541676,43.8958156 601.625,47.4375 C599.708324,50.9791844 598.75,55.0416437 598.75,59.625 C598.75,64.2083563 599.708324,68.2708156 601.625,71.8125 C603.541676,75.3541844 606.208316,78.1041569 609.625,80.0625 C613.041684,82.0208431 616.833312,83 621,83 Z M727.875,26.5 L695.75,99.375 C692.916653,106.125034 689.604186,110.874986 685.8125,113.625 C682.020814,116.375014 677.45836,117.75 672.125,117.75 C668.874984,117.75 665.729182,117.229172 662.6875,116.1875 C659.645818,115.145828 657.125,113.62501 655.125,111.625 L660.25,102.625 C663.666684,105.875016 667.624978,107.5 672.125,107.5 C675.041681,107.5 677.479157,106.729174 679.4375,105.1875 C681.395843,103.645826 683.166659,101.000019 684.75,97.25 L686.875,92.625 L657.625,26.5 L670.125,26.5 L693.25,79.5 L716.125,26.5 L727.875,26.5 Z" id="poweredby" fill="#FFFFFF" fill-rule="nonzero"></path>
        </g>
    </g>
</svg>